<svg xmlns="http://www.w3.org/2000/svg" width="24" height="24" viewBox="0 0 24 24" fill="none"><path d="M21 1H3C1.9 1 1 2 1 3.22222V16.5556C1 17.7778 1.9 18.7778 3 18.7778H8V21H16V18.7778H21C22.1 18.7778 22.99 17.7778 22.99 16.5556L23 3.22222C23 2 22.1 1 21 1ZM21 16.5556H3V3.22222H21V16.5556Z" fill="white"/><g clip-path="url(#clip0)"><path d="M18.3057 6C17.9249 6 17.6113 6.28488 17.6113 6.63081C17.6113 6.75291 17.6561 6.85465 17.7233 6.97674L15.4833 10.8023C15.4161 10.8023 15.3713 10.8023 15.3489 10.843L13.3553 9.05233C13.3553 8.99128 13.4001 8.95058 13.4001 8.88953C13.4001 8.5436 13.0865 8.25872 12.7057 8.25872C12.3249 8.25872 12.0113 8.5436 12.0113 8.88953C12.0113 8.95058 12.0113 8.99128 12.0561 9.05233L10.0849 10.843C10.0177 10.782 9.97292 10.782 9.90572 10.782C9.79372 10.782 9.70412 10.8227 9.59212 10.843L8.51692 10.1715V10.1308C8.51692 9.78488 8.20332 9.5 7.82252 9.5C7.44172 9.5 7.12812 9.78488 7.12812 10.1308C7.12812 10.1919 7.12812 10.2936 7.17292 10.3547L5.87372 11.718C5.82892 11.718 5.80652 11.718 5.73932 11.718C5.35852 11.718 5.04492 12.0029 5.04492 12.3488C5.04492 12.6948 5.35852 12.9797 5.73932 12.9797C6.12012 12.9797 6.43372 12.6948 6.43372 12.3488C6.43372 12.2878 6.43372 12.186 6.38892 12.125L7.71052 10.7209C7.75532 10.7209 7.77772 10.7209 7.84492 10.7209C7.95692 10.7209 8.04652 10.6802 8.15852 10.6599L9.23372 11.3314V11.3721C9.23372 11.718 9.54732 12.0029 9.92812 12.0029C10.3089 12.0029 10.6225 11.718 10.6225 11.3721C10.6225 11.311 10.6225 11.2703 10.5777 11.2093L12.5489 9.4186C12.6161 9.4186 12.6609 9.4593 12.7281 9.4593C12.7953 9.4593 12.8401 9.4593 12.9073 9.4186L14.8785 11.2093C14.8785 11.2703 14.8337 11.311 14.8337 11.3721C14.8337 11.718 15.1473 12.0029 15.5281 12.0029C15.9089 12.0029 16.2225 11.718 16.2225 11.3721C16.2225 11.25 16.1777 11.1483 16.1105 11.0262L18.3505 7.20058C18.6641 7.26163 18.9777 6.97674 18.9777 6.63081C18.9777 6.28488 18.6865 6 18.3057 6Z" fill="white"/><path d="M9.9056 6H5V6.63081H9.9056V6Z" fill="white"/><path d="M10.6 7.26172H5V7.89253H10.6V7.26172Z" fill="white"/></g><defs><clipPath id="clip0"><rect width="14" height="7" fill="white" transform="translate(5 6)"/></clipPath></defs></svg>